<svg width="90" height="89" viewBox="0 0 90 89" fill="none" xmlns="http://www.w3.org/2000/svg">
<g clip-path="url(#clip0)">
<path d="M84.3477 48.1488C83.6384 41.0143 80.451 34.2882 75.3724 29.2095C71.0323 24.8695 65.7201 22.0805 60.1304 20.8404V16.92C62.4134 16.352 64.1104 14.2855 64.1104 11.8292C64.1104 8.93638 61.7571 6.58301 58.8643 6.58301H47.7547C44.8619 6.58301 42.5085 8.93638 42.5085 11.8292C42.5085 14.2853 44.2055 16.3518 46.4884 16.92V20.8514C40.9159 22.0967 35.6212 24.8818 31.2934 29.2096C30.3463 30.1567 29.473 31.1502 28.6736 32.1828C28.6349 32.1799 28.5961 32.1769 28.5566 32.1769H17.5611C16.7091 32.1769 16.0181 32.8677 16.0181 33.7199C16.0181 34.5721 16.7091 35.2629 17.5611 35.2629H26.574C25.4427 37.1569 24.5305 39.146 23.8362 41.1936H7.04299C6.19095 41.1936 5.5 41.8844 5.5 42.7366C5.5 43.5888 6.19095 44.2796 7.04299 44.2796H22.9642C22.5195 46.2316 22.2643 48.2182 22.1984 50.2104H15.3752C14.5231 50.2104 13.8322 50.9012 13.8322 51.7534C13.8322 52.6055 14.5231 53.2963 15.3752 53.2963H22.2476C22.3779 55.2936 22.699 57.2804 23.2111 59.2271H13.215C12.3629 59.2271 11.672 59.9179 11.672 60.7701C11.672 61.6223 12.3629 62.3131 13.215 62.3131H24.1958C25.7095 66.3174 28.0751 70.0704 31.2934 73.2887C36.377 78.3723 43.11 81.5604 50.2519 82.266C51.2712 82.3666 52.2913 82.4165 53.3099 82.4165C59.331 82.4165 65.2755 80.674 70.3196 77.3893C71.0337 76.9242 71.2357 75.9683 70.7706 75.2542C70.3055 74.5401 69.3497 74.3381 68.6356 74.8032C57.5944 81.9931 42.8074 80.4385 33.4755 71.1067C22.5262 60.1573 22.5262 42.3414 33.4755 31.3919C44.4248 20.4426 62.2406 20.4426 73.1902 31.3919C82.5097 40.7115 84.0727 55.4859 76.9066 66.5216C76.4425 67.2364 76.6457 68.1921 77.3603 68.6561C78.0753 69.1202 79.0307 68.917 79.4947 68.2023C83.3235 62.3057 85.047 55.184 84.3477 48.1488ZM45.5945 11.8293C45.5945 10.6381 46.5635 9.66915 47.7547 9.66915H58.8643C60.0554 9.66915 61.0244 10.6381 61.0244 11.8293C61.0244 13.0205 60.0554 13.9895 58.8643 13.9895H47.7547C46.5635 13.9895 45.5945 13.0204 45.5945 11.8293ZM49.5744 20.3209V17.0755H57.0444V20.3153C54.5639 20.0203 52.0544 20.0222 49.5744 20.3209Z" fill="#E31E24"/>
<path d="M74.282 70.654C73.8746 70.654 73.4781 70.8191 73.1912 71.106C72.9027 71.393 72.739 71.7911 72.739 72.1969C72.739 72.6027 72.9027 73.0008 73.1912 73.2878C73.4781 73.5763 73.8748 73.7399 74.282 73.7399C74.6878 73.7399 75.0843 73.5763 75.3728 73.2878C75.6598 73.0008 75.8249 72.6027 75.8249 72.1969C75.8249 71.7911 75.66 71.393 75.3728 71.106C75.0843 70.8191 74.6876 70.654 74.282 70.654Z" fill="#E31E24"/>
<path d="M53.3329 27.3127C40.1345 27.3127 29.3966 38.0504 29.3966 51.249C29.3966 64.4476 40.1345 75.1853 53.3329 75.1853C66.5314 75.1853 77.2692 64.4476 77.2692 51.249C77.2692 38.0504 66.5314 27.3127 53.3329 27.3127ZM53.3329 72.0993C41.8359 72.0993 32.4826 62.7458 32.4826 51.249C32.4826 39.7521 41.8359 30.3987 53.3329 30.3987C64.8299 30.3987 74.1832 39.7521 74.1832 51.249C74.1832 62.7458 64.8299 72.0993 53.3329 72.0993Z" fill="#E31E24"/>
<path d="M63.0933 39.3065L55.4508 46.9488C54.8117 46.6328 54.0929 46.4543 53.3329 46.4543C52.5729 46.4543 51.8541 46.6328 51.215 46.9488L47.7947 43.5285C47.192 42.9259 46.2153 42.9259 45.6124 43.5285C45.0099 44.131 45.0099 45.108 45.6124 45.7106L49.0328 49.1309C48.7166 49.77 48.5382 50.4889 48.5382 51.2488C48.5382 53.8926 50.689 56.0435 53.3329 56.0435C55.9769 56.0435 58.1276 53.8926 58.1276 51.2488C58.1276 50.4889 57.9491 49.77 57.6331 49.1309L65.2754 41.4886C65.8779 40.8861 65.8779 39.9091 65.2754 39.3065C64.6729 38.704 63.6961 38.704 63.0933 39.3065ZM53.3329 52.9577C52.3908 52.9577 51.6242 52.1911 51.6242 51.249C51.6242 50.3068 52.3908 49.5403 53.3329 49.5403C54.2751 49.5403 55.0416 50.3068 55.0416 51.249C55.0416 52.1911 54.2751 52.9577 53.3329 52.9577Z" fill="#E31E24"/>
<path d="M69.8304 49.7248H68.4009C67.5488 49.7248 66.8579 50.4156 66.8579 51.2678C66.8579 52.12 67.5488 52.8107 68.4009 52.8107H69.8304C70.6824 52.8107 71.3734 52.12 71.3734 51.2678C71.3734 50.4156 70.6824 49.7248 69.8304 49.7248Z" fill="#E31E24"/>
<path d="M38.2648 49.6872H36.8354C35.9834 49.6872 35.2924 50.3779 35.2924 51.2301C35.2924 52.0823 35.9834 52.7731 36.8354 52.7731H38.2648C39.1168 52.7731 39.8078 52.0823 39.8078 51.2301C39.8078 50.3779 39.1168 49.6872 38.2648 49.6872Z" fill="#E31E24"/>
<path d="M53.3517 37.7238C54.2038 37.7238 54.8947 37.033 54.8947 36.1808V34.7514C54.8947 33.8992 54.2038 33.2085 53.3517 33.2085C52.4997 33.2085 51.8088 33.8992 51.8088 34.7514V36.1808C51.8088 37.033 52.4997 37.7238 53.3517 37.7238Z" fill="#E31E24"/>
<path d="M53.3141 64.7741C52.4621 64.7741 51.7711 65.4649 51.7711 66.317V67.7465C51.7711 68.5986 52.4621 69.2894 53.3141 69.2894C54.1661 69.2894 54.8571 68.5986 54.8571 67.7465V66.317C54.8571 65.4649 54.1661 64.7741 53.3141 64.7741Z" fill="#E31E24"/>
<path d="M7.04297 59.2266C6.63717 59.2266 6.23908 59.3917 5.95209 59.6786C5.6651 59.9656 5.5 60.3637 5.5 60.7695C5.5 61.1769 5.66494 61.5734 5.95209 61.8604C6.23924 62.1474 6.63717 62.3125 7.04297 62.3125C7.44877 62.3125 7.84686 62.1474 8.13369 61.8604C8.42069 61.5734 8.58594 61.1753 8.58594 60.7695C8.58594 60.3637 8.42084 59.9656 8.13369 59.6786C7.84686 59.3917 7.44877 59.2266 7.04297 59.2266Z" fill="#E31E24"/>
</g>
<defs>
<clipPath id="clip0">
<rect width="79" height="79" fill="white" transform="translate(5.5 5)"/>
</clipPath>
</defs>
</svg>
