<svg width="90" height="89" viewBox="0 0 90 89" fill="none" xmlns="http://www.w3.org/2000/svg">
<g clip-path="url(#clip0)">
<path d="M77.9175 11.5837H68.0425V14.8753H77.9175C79.7354 14.8753 81.2091 16.349 81.2091 18.1669V64.2501C81.2091 66.068 79.7354 67.5417 77.9175 67.5417H12.0843C10.2664 67.5417 8.79273 66.068 8.79273 64.2501V18.167C8.79273 16.3491 10.2664 14.8754 12.0843 14.8754H21.9593V11.5837H12.0843C8.4485 11.5837 5.50098 14.531 5.50098 18.167V64.2502C5.50098 67.8861 8.4485 70.8336 12.0843 70.8336H77.9175C81.5533 70.8336 84.5008 67.8862 84.5008 64.2502V18.167C84.5007 14.531 81.5533 11.5837 77.9175 11.5837Z" fill="#E31E24"/>
<path d="M68.0425 74.125H21.9593C19.2324 74.125 17.0218 76.3356 17.0218 79.0625C17.0218 81.7894 19.2324 84 21.9593 84H68.0425C70.7694 84 72.98 81.7894 72.98 79.0625C72.98 76.3356 70.7694 74.125 68.0425 74.125ZM68.0425 80.7084H21.9593C21.0503 80.7084 20.3134 79.9715 20.3134 79.0625C20.3134 78.1536 21.0503 77.4166 21.9593 77.4166H68.0425C68.9515 77.4166 69.6884 78.1536 69.6884 79.0625C69.6882 79.9715 68.9515 80.7084 68.0425 80.7084Z" fill="#E31E24"/>
<path d="M54.8758 67.5418H35.1259C34.2169 67.5418 33.48 68.2788 33.48 69.1877V75.7711C33.48 76.68 34.2169 77.417 35.1259 77.417H54.8758C55.7847 77.417 56.5217 76.68 56.5217 75.7711V69.1877C56.5217 68.2786 55.7847 67.5418 54.8758 67.5418ZM53.2299 74.125H36.7717V70.8334H53.2301L53.2299 74.125Z" fill="#E31E24"/>
<path d="M59.8133 57.6669C59.3768 57.667 58.9583 57.8405 58.6497 58.1491L55.8403 60.9585H34.1614L31.3519 58.1491C31.0433 57.8403 30.6247 57.6669 30.1884 57.6669H5.50098V60.9585H29.507L32.3164 63.7679C32.625 64.0767 33.0436 64.2501 33.48 64.2501H56.5215C56.958 64.2499 57.3765 64.0765 57.6851 63.7679L60.4945 60.9585H84.5005V57.6669H59.8133Z" fill="#E31E24"/>
<path d="M68.5625 18.251C62.0208 16.2968 56.0842 12.7093 51.3126 7.82626C51.1 7.58818 50.8741 7.36213 50.6359 7.14951C47.15 4.03736 41.8012 4.3404 38.689 7.82626C33.9173 12.7093 27.9809 16.2968 21.4392 18.251C20.7667 18.4749 20.3133 19.1042 20.3134 19.8129C20.3134 20.1223 20.5899 50.7544 44.5498 57.6027C44.6964 57.6454 44.8482 57.667 45.0008 57.6669C45.1534 57.667 45.3052 57.6454 45.4518 57.6027C69.4117 50.7544 69.6882 20.1223 69.6882 19.8128C69.6884 19.1041 69.2349 18.4749 68.5625 18.251ZM45.0008 54.306C26.37 48.6395 23.9605 26.327 23.6495 20.9649C30.276 18.7995 36.274 15.0499 41.1232 10.0415C41.2656 9.88009 41.4181 9.72765 41.5795 9.58523C43.7209 7.69572 46.9888 7.89986 48.8784 10.0415C53.727 15.0518 59.7252 18.803 66.3522 20.9698C66.0411 26.327 63.6316 48.6395 45.0008 54.306Z" fill="#E31E24"/>
<path d="M61.7653 22.7095C55.9708 20.3604 50.747 16.7967 46.446 12.2586L44.0133 14.4753C48.3341 19.0589 53.5416 22.7158 59.3195 25.2242C58.23 32.214 54.9449 43.1621 45.0008 47.3178C34.4675 42.9135 31.4013 30.876 30.5175 24.0096L27.2538 24.431C28.2479 32.1565 31.7995 45.8169 44.4148 50.6276C44.6018 50.6993 44.8004 50.7362 45.0007 50.7362C45.202 50.7367 45.4018 50.6998 45.5899 50.6276C58.2052 45.8283 61.7651 32.1515 62.7526 24.4325C62.8463 23.702 62.4429 22.9982 61.7653 22.7095Z" fill="#E31E24"/>
<path d="M15.3759 51.0835H12.0843V54.3751H15.3759V51.0835Z" fill="#E31E24"/>
<path d="M21.9591 51.0835H18.6675V54.3751H21.9591V51.0835Z" fill="#E31E24"/>
<path d="M15.3759 44.5002H12.0843V47.7918H15.3759V44.5002Z" fill="#E31E24"/>
<path d="M77.9173 51.0835H74.6257V54.3751H77.9173V51.0835Z" fill="#E31E24"/>
<path d="M71.3341 51.0835H68.0425V54.3751H71.3341V51.0835Z" fill="#E31E24"/>
<path d="M77.9173 44.5002H74.6257V47.7918H77.9173V44.5002Z" fill="#E31E24"/>
</g>
<defs>
<clipPath id="clip0">
<rect width="79" height="79" fill="white" transform="translate(5.5 5)"/>
</clipPath>
</defs>
</svg>
