<svg width="90" height="89" viewBox="0 0 90 89" fill="none" xmlns="http://www.w3.org/2000/svg">
<path fill-rule="evenodd" clip-rule="evenodd" d="M23.696 5.17439C23.2152 5.43538 10.9704 17.6783 10.7215 18.147C10.5312 18.5053 10.5 23.0759 10.5 50.6667C10.5 75.2276 10.5434 82.8648 10.6844 83.1744C11.0792 84.0408 10.761 84.0189 22.9243 84.0189C35.0876 84.0189 34.7693 84.0408 35.1641 83.1744C35.3973 82.6626 35.3973 82.2885 35.1641 81.7767C34.7713 80.9147 35.0056 80.9321 23.858 80.9321H13.5868V50.6817V20.4313H19.1507C25.186 20.4313 25.3758 20.407 25.7495 19.5867C25.8816 19.2969 25.9339 17.6066 25.9339 13.6331V8.08414H46.6925H67.4511V29.9174V51.7508L66.5031 52.764L65.5553 53.7774L63.6864 51.9507C60.8205 49.1491 59.7071 48.5282 57.3226 48.4015C54.5945 48.2564 52.9912 48.9679 50.4455 51.4539L48.7761 53.0841V53.8453V54.6065L58.1136 63.9524L67.4511 73.2982V77.1152V80.9321H57.4113C49.0239 80.9321 47.3017 80.9684 46.9464 81.1521C45.9193 81.6833 45.9193 83.2678 46.9464 83.799C47.5809 84.1271 69.1093 84.1271 69.7438 83.799C70.4635 83.4269 70.5379 83.0339 70.5379 79.6074V76.4452L71.1139 76.8366C72.2182 77.587 72.7309 77.3564 74.7756 75.189C75.8689 74.0301 76.4157 73.3059 76.7991 72.5089C77.8619 70.2997 77.8554 67.9374 76.7803 65.7023C76.3503 64.8082 75.8561 64.1891 74.2196 62.4945L72.1916 60.3946L72.5609 59.9962C73.2198 59.2853 75.8159 57.1669 77.7918 55.7275C80.3352 53.875 82.3047 52.6345 84.5589 51.4657C86.8061 50.3005 87.8474 49.3078 88.6958 47.5211C90.1536 44.4517 89.6089 41.2158 87.2289 38.8035C84.1813 35.715 79.4756 35.7074 76.3888 38.7863C75.5929 39.5804 75.1773 40.1816 74.4767 41.5533C73.6493 43.1733 71.0154 47.318 70.6826 47.5236C70.5928 47.5792 70.5379 39.7675 70.5379 26.9299C70.5379 11.2228 70.4936 6.1492 70.3534 5.84191C69.9467 4.94906 71.2963 4.9969 46.6616 5.00199C30.6636 5.00539 23.9139 5.05601 23.696 5.17439ZM22.8471 13.8719V17.3445H19.3371H15.8273L19.2973 13.8719C21.2059 11.9619 22.7854 10.3992 22.8073 10.3992C22.8292 10.3992 22.8471 11.9619 22.8471 13.8719ZM40.4587 14.4732C39.4244 15.0464 39.4583 16.6788 40.5146 17.16C41.0525 17.4051 44.4612 17.4051 44.9991 17.16C45.4414 16.9585 45.8436 16.3113 45.8436 15.8011C45.8436 15.2908 45.4414 14.6437 44.9991 14.4421C44.4277 14.1818 40.9415 14.2055 40.4587 14.4732ZM49.7191 14.4732C48.6847 15.0464 48.7187 16.6788 49.7749 17.16C50.3128 17.4051 53.7216 17.4051 54.2594 17.16C54.7018 16.9585 55.104 16.3113 55.104 15.8011C55.104 15.2908 54.7018 14.6437 54.2594 14.4421C53.6881 14.1818 50.2019 14.2055 49.7191 14.4732ZM58.9794 14.4732C57.945 15.0464 57.979 16.6788 59.0353 17.16C59.5732 17.4051 62.9819 17.4051 63.5198 17.16C63.9621 16.9585 64.3643 16.3113 64.3643 15.8011C64.3643 15.2908 63.9621 14.6437 63.5198 14.4421C62.9484 14.1818 59.4622 14.2055 58.9794 14.4732ZM17.4622 24.6595C16.7399 25.0597 16.6848 25.3684 16.679 29.0434C16.6731 32.7869 16.7444 33.1675 17.5181 33.52C17.826 33.6603 23.3321 33.7044 40.5339 33.7044C65.117 33.7044 63.7732 33.7524 64.1799 32.8599C64.4358 32.2982 64.4358 25.8503 64.1799 25.2886C63.7732 24.3958 65.123 24.4436 40.4881 24.4495C21.978 24.454 17.7637 24.4924 17.4622 24.6595ZM29.9467 29.0742V30.6176H24.8535H19.7603V29.0742V27.5309H24.8535H29.9467V29.0742ZM61.2775 29.0742V30.6176H47.1555H33.0335V29.0742V27.5309H47.1555H61.2775V29.0742ZM17.4622 37.0066C16.4279 37.5799 16.4618 39.2123 17.5181 39.6935C17.826 39.8338 23.3321 39.878 40.5339 39.878C59.8019 39.878 63.2078 39.8454 63.5702 39.658C64.5974 39.1268 64.5974 37.5424 63.5702 37.0111C62.9578 36.6944 18.0334 36.6899 17.4622 37.0066ZM83.4148 39.8874C85.6405 40.7202 86.9074 43.2515 86.2091 45.4714C85.7242 47.0131 85.0639 47.6739 82.8078 48.8758C78.8966 50.9592 75.5213 53.3601 70.4209 57.6873L69.8949 58.1335L68.836 57.0828L67.777 56.0319L68.27 55.4562C68.5412 55.1396 69.2905 54.2656 69.9353 53.5143C72.5455 50.472 75.5014 46.2216 77.1599 43.1254C78.1729 41.2346 78.4942 40.813 79.3054 40.3117C80.5579 39.5377 82.0644 39.3821 83.4148 39.8874ZM17.4622 43.1802C16.4279 43.7534 16.4618 45.3859 17.5181 45.8671C17.826 46.0074 23.3321 46.0515 40.5339 46.0515C59.8019 46.0515 63.2078 46.019 63.5702 45.8316C64.5974 45.3004 64.5974 43.7159 63.5702 43.1847C62.9578 42.868 18.0334 42.8635 17.4622 43.1802ZM17.4622 49.3538C16.4279 49.927 16.4618 51.5594 17.5181 52.0407C18.1009 52.3063 43.9533 52.3063 44.5361 52.0407C44.9784 51.8391 45.3806 51.1919 45.3806 50.6817C45.3806 50.1715 44.9784 49.5243 44.5361 49.3227C43.9152 49.0398 17.9751 49.0695 17.4622 49.3538ZM58.4334 51.7051C59.1174 51.9315 59.9271 52.6875 66.4794 59.2183C74.6025 67.3148 74.4619 67.1404 74.4619 69.1252C74.4619 70.5366 74.0304 71.5113 72.9196 72.6083L72.0765 73.441L62.2715 63.6432L52.4666 53.8456L53.4578 52.9002C54.0557 52.3299 54.7169 51.8601 55.1237 51.7162C56.0204 51.3994 57.4945 51.3944 58.4334 51.7051ZM17.4622 55.5273C16.4279 56.1005 16.4618 57.733 17.5181 58.2142C17.8186 58.3511 20.5024 58.3987 27.9403 58.3987C35.3782 58.3987 38.062 58.3511 38.3625 58.2142C38.8048 58.0126 39.2071 57.3655 39.2071 56.8553C39.2071 56.345 38.8048 55.6979 38.3625 55.4963C37.7442 55.2145 17.9736 55.2438 17.4622 55.5273ZM43.0825 55.5273C41.7445 56.2689 42.3043 58.3987 43.8372 58.3987C44.6193 58.3987 45.3806 57.6447 45.3806 56.8702C45.3806 55.7114 44.1001 54.9632 43.0825 55.5273ZM45.0719 61.731C42.4792 62.4192 40.4827 64.2546 39.6525 66.7133L39.333 67.659H35.2645C30.8746 67.659 30.5513 67.7093 30.1666 68.4531C29.8882 68.9914 29.8882 69.4134 30.1666 69.9517C30.5513 70.6955 30.8746 70.7458 35.2645 70.7458H39.333L39.6525 71.6914C40.8841 75.3386 44.7265 77.5353 48.4984 76.7488C51.3907 76.1456 53.8672 73.6691 54.4704 70.7768C55.0056 68.21 54.235 65.6824 52.3396 63.7868C50.3773 61.8247 47.6383 61.0499 45.0719 61.731ZM48.9979 65.1008C49.9558 65.5695 50.6845 66.3289 51.1489 67.3424C51.5949 68.3163 51.5949 70.0884 51.1489 71.0623C49.9159 73.7534 46.5611 74.6384 44.1672 72.9042C43.5881 72.4847 42.6025 71.2034 42.6025 70.8699C42.6025 70.8016 43.6477 70.7458 44.9253 70.7458C46.6337 70.7458 47.3605 70.6876 47.6733 70.5258C48.7004 69.9946 48.7004 68.4102 47.6733 67.8789C47.3605 67.7172 46.6337 67.659 44.9253 67.659C43.6477 67.659 42.6025 67.6031 42.6025 67.5349C42.6025 67.4665 42.8036 67.0936 43.0493 66.7062C44.2941 64.7435 46.8549 64.0524 48.9979 65.1008ZM39.9957 81.1476C38.6578 81.8892 39.2175 84.0189 40.7504 84.0189C41.5325 84.0189 42.2938 83.265 42.2938 82.4905C42.2938 81.3317 41.0133 80.5835 39.9957 81.1476Z" fill="#E31E24"/>
</svg>
