<svg width="71" height="70" viewBox="0 0 71 70" fill="none" xmlns="http://www.w3.org/2000/svg">
<rect width="70" height="70" transform="translate(0.5)" fill="white"/>
<g clip-path="url(#clip0)">
<path d="M35.0001 32.0832C31.783 32.0832 29.1667 29.4669 29.1667 26.2498C29.1667 23.0328 31.783 20.4165 35.0001 20.4165C38.2172 20.4165 40.8334 23.0328 40.8334 26.2498C40.8334 29.4669 38.2172 32.0832 35.0001 32.0832ZM35.0001 23.3332C33.3901 23.3332 32.0834 24.6428 32.0834 26.2498C32.0834 27.8569 33.3901 29.1665 35.0001 29.1665C36.6101 29.1665 37.9168 27.8569 37.9168 26.2498C37.9168 24.6428 36.6101 23.3332 35.0001 23.3332Z" fill="#E31E24"/>
<path d="M49.5833 43.7502C46.3662 43.7502 43.75 41.1339 43.75 37.9168C43.75 34.6997 46.3662 32.0835 49.5833 32.0835C52.8004 32.0835 55.4167 34.6997 55.4167 37.9168C55.4167 41.1339 52.8004 43.7502 49.5833 43.7502ZM49.5833 35.0002C47.9733 35.0002 46.6667 36.3097 46.6667 37.9168C46.6667 39.5239 47.9733 40.8335 49.5833 40.8335C51.1933 40.8335 52.5 39.5239 52.5 37.9168C52.5 36.3097 51.1933 35.0002 49.5833 35.0002Z" fill="#E31E24"/>
<path d="M35.0001 64.1665C34.1951 64.1665 33.5417 63.5132 33.5417 62.7082V30.6248C33.5417 29.8198 34.1951 29.1665 35.0001 29.1665C35.8051 29.1665 36.4584 29.8198 36.4584 30.6248V62.7082C36.4584 63.5132 35.8051 64.1665 35.0001 64.1665Z" fill="#E31E24"/>
<path d="M42.2916 55.4167C41.4866 55.4167 40.8333 54.7634 40.8333 53.9584V45.2084C40.8333 44.8205 40.9878 44.45 41.2591 44.1759L45.4591 39.9759C46.0278 39.4071 46.9524 39.4071 47.5212 39.9759C48.0899 40.5446 48.0899 41.4692 47.5212 42.038L43.7499 45.8121V53.9584C43.7499 54.7634 43.0966 55.4167 42.2916 55.4167Z" fill="#E31E24"/>
<path d="M20.4166 43.7502C17.1995 43.7502 14.5833 41.1339 14.5833 37.9168C14.5833 34.6997 17.1995 32.0835 20.4166 32.0835C23.6337 32.0835 26.2499 34.6997 26.2499 37.9168C26.2499 41.1339 23.6337 43.7502 20.4166 43.7502ZM20.4166 35.0002C18.8066 35.0002 17.4999 36.3097 17.4999 37.9168C17.4999 39.5239 18.8066 40.8335 20.4166 40.8335C22.0266 40.8335 23.3333 39.5239 23.3333 37.9168C23.3333 36.3097 22.0266 35.0002 20.4166 35.0002Z" fill="#E31E24"/>
<path d="M27.7084 55.4167C26.9034 55.4167 26.25 54.7634 26.25 53.9584V45.8121L22.4759 42.0409C21.9071 41.4721 21.9071 40.5476 22.4759 39.9788C23.0446 39.4101 23.9692 39.4101 24.538 39.9788L28.738 44.1788C29.0121 44.4501 29.1667 44.8205 29.1667 45.2084V53.9584C29.1667 54.7634 28.5134 55.4167 27.7084 55.4167Z" fill="#E31E24"/>
<path d="M52.5 52.5002H51.0417C50.2367 52.5002 49.5833 51.8468 49.5833 51.0418C49.5833 50.2368 50.2367 49.5835 51.0417 49.5835H52.5C60.5413 49.5835 67.0833 43.0414 67.0833 35.0002C67.0833 27.2797 61.0662 20.8981 53.3838 20.4722C52.8442 20.4431 52.3688 20.1193 52.1413 19.6322C49.0554 13.0231 42.3296 8.75016 35 8.75016C25.6229 8.75016 17.5671 15.7356 16.2604 24.996C16.1583 25.7135 15.5429 26.2502 14.8167 26.2502C8.14917 26.2502 2.91667 31.4827 2.91667 37.9168C2.91667 44.351 8.14917 49.5835 14.5833 49.5835H18.9583C19.7633 49.5835 20.4167 50.2368 20.4167 51.0418C20.4167 51.8468 19.7633 52.5002 18.9583 52.5002H14.5833C6.54208 52.5002 0 45.9581 0 37.9168C0 30.211 6.00542 23.8847 13.58 23.3685C15.5983 13.2885 24.5963 5.8335 35 5.8335C43.1696 5.8335 50.6946 10.436 54.4046 17.6285C63.2188 18.5531 70 26.0227 70 35.0002C70 44.6514 62.1513 52.5002 52.5 52.5002Z" fill="#E31E24"/>
</g>
<defs>
<clipPath id="clip0">
<rect width="70" height="70" fill="white"/>
</clipPath>
</defs>
</svg>
