<svg width="71" height="70" viewBox="0 0 71 70" fill="none" xmlns="http://www.w3.org/2000/svg">
<path d="M55.6824 62.4123H9.12099C8.87011 62.4123 8.62951 62.3127 8.45211 62.1353C8.27471 61.9579 8.17505 61.7173 8.17505 61.4664V2.8395C8.17505 2.58862 8.27471 2.34802 8.45211 2.17062C8.62951 1.99322 8.87011 1.89355 9.12099 1.89355H55.6824C55.9332 1.89355 56.1738 1.99322 56.3512 2.17062C56.5286 2.34802 56.6283 2.58862 56.6283 2.8395V61.4664C56.6283 61.7173 56.5286 61.9579 56.3512 62.1353C56.1738 62.3127 55.9332 62.4123 55.6824 62.4123ZM10.0707 60.5204H54.7364V3.78545H10.0669L10.0707 60.5204Z" fill="#E31E24"/>
<path d="M61.3771 39.7304C61.1262 39.7304 60.8856 39.6307 60.7082 39.4533C60.5308 39.2759 60.4312 39.0353 60.4312 38.7844V36.0412C60.4312 35.7903 60.5308 35.5497 60.7082 35.3723C60.8856 35.1949 61.1262 35.0952 61.3771 35.0952C61.628 35.0952 61.8686 35.1949 62.046 35.3723C62.2234 35.5497 62.3231 35.7903 62.3231 36.0412V38.7844C62.3231 39.0353 62.2234 39.2759 62.046 39.4533C61.8686 39.6307 61.628 39.7304 61.3771 39.7304Z" fill="#E31E24"/>
<path d="M61.3767 68.1072H13.8713C13.6204 68.1072 13.3798 68.0076 13.2024 67.8302C13.025 67.6528 12.9253 67.4122 12.9253 67.1613V61.4667C12.9241 61.2158 13.0225 60.9747 13.199 60.7964C13.3755 60.6181 13.6156 60.5173 13.8665 60.516C14.1174 60.5148 14.3585 60.6132 14.5368 60.7897C14.7151 60.9662 14.8159 61.2063 14.8172 61.4572V66.2153H60.4307V54.8356C60.4307 54.5847 60.5304 54.3441 60.7078 54.1667C60.8852 53.9893 61.1258 53.8896 61.3767 53.8896C61.6275 53.8896 61.8681 53.9893 62.0455 54.1667C62.2229 54.3441 62.3226 54.5847 62.3226 54.8356V67.1613C62.3226 67.4122 62.2229 67.6528 62.0455 67.8302C61.8681 68.0076 61.6275 68.1072 61.3767 68.1072Z" fill="#E31E24"/>
<path d="M61.3771 49.1623C61.1262 49.1623 60.8856 49.0626 60.7082 48.8852C60.5308 48.7078 60.4312 48.4672 60.4312 48.2164V45.4069C60.4312 45.156 60.5308 44.9154 60.7082 44.738C60.8856 44.5606 61.1262 44.4609 61.3771 44.4609C61.628 44.4609 61.8686 44.5606 62.046 44.738C62.2234 44.9154 62.3231 45.156 62.3231 45.4069V48.2164C62.3231 48.4672 62.2234 48.7078 62.046 48.8852C61.8686 49.0626 61.628 49.1623 61.3771 49.1623Z" fill="#E31E24"/>
<path d="M61.3774 30.3654C61.1265 30.3654 60.8859 30.2658 60.7085 30.0884C60.5311 29.911 60.4314 29.6704 60.4314 29.4195V8.53301H55.6828C55.4319 8.53301 55.1913 8.43334 55.0139 8.25594C54.8365 8.07855 54.7368 7.83794 54.7368 7.58706C54.7368 7.33618 54.8365 7.09557 55.0139 6.91817C55.1913 6.74078 55.4319 6.64111 55.6828 6.64111H61.3774C61.6283 6.64111 61.8689 6.74078 62.0463 6.91817C62.2237 7.09557 62.3233 7.33618 62.3233 7.58706V29.4195C62.3233 29.6704 62.2237 29.911 62.0463 30.0884C61.8689 30.2658 61.6283 30.3654 61.3774 30.3654Z" fill="#E31E24"/>
<path d="M49.3448 15.8523H29.1962C28.9453 15.8523 28.7047 15.7527 28.5273 15.5753C28.3499 15.3979 28.2502 15.1573 28.2502 14.9064C28.2502 14.6555 28.3499 14.4149 28.5273 14.2375C28.7047 14.0601 28.9453 13.9604 29.1962 13.9604H49.3448C49.5957 13.9604 49.8363 14.0601 50.0137 14.2375C50.1911 14.4149 50.2908 14.6555 50.2908 14.9064C50.2908 15.1573 50.1911 15.3979 50.0137 15.5753C49.8363 15.7527 49.5957 15.8523 49.3448 15.8523Z" fill="#E31E24"/>
<path d="M17.6552 19.3738C17.4043 19.3737 17.1637 19.274 16.9864 19.0966L14.7861 16.8954C14.6958 16.8081 14.6237 16.7037 14.5741 16.5883C14.5245 16.4729 14.4984 16.3488 14.4974 16.2232C14.4963 16.0976 14.5202 15.973 14.5678 15.8568C14.6153 15.7405 14.6856 15.6349 14.7744 15.5461C14.8632 15.4573 14.9688 15.387 15.0851 15.3395C15.2013 15.2919 15.3259 15.268 15.4515 15.2691C15.5771 15.2702 15.7012 15.2962 15.8166 15.3458C15.932 15.3954 16.0364 15.4675 16.1237 15.5578L17.6552 17.0893L23.2731 11.4713C23.3596 11.3776 23.4642 11.3024 23.5805 11.2501C23.6968 11.1978 23.8225 11.1696 23.95 11.1672C24.0775 11.1647 24.2041 11.1881 24.3224 11.2358C24.4406 11.2835 24.548 11.3547 24.638 11.445C24.7281 11.5353 24.7989 11.6429 24.8464 11.7612C24.8938 11.8796 24.9167 12.0064 24.9139 12.1339C24.9111 12.2613 24.8825 12.3869 24.8299 12.5031C24.7773 12.6193 24.7018 12.7236 24.6079 12.8098L18.3173 19.0966C18.1416 19.2724 17.9037 19.372 17.6552 19.3738V19.3738Z" fill="#E31E24"/>
<path d="M49.3448 27.0623H29.1962C28.9453 27.0623 28.7047 26.9626 28.5273 26.7852C28.3499 26.6078 28.2502 26.3672 28.2502 26.1164C28.2502 25.8655 28.3499 25.6249 28.5273 25.4475C28.7047 25.2701 28.9453 25.1704 29.1962 25.1704H49.3448C49.5957 25.1704 49.8363 25.2701 50.0137 25.4475C50.1911 25.6249 50.2908 25.8655 50.2908 26.1164C50.2908 26.3672 50.1911 26.6078 50.0137 26.7852C49.8363 26.9626 49.5957 27.0623 49.3448 27.0623Z" fill="#E31E24"/>
<path d="M17.6552 30.6187C17.4043 30.6186 17.1637 30.5189 16.9864 30.3415L14.7861 28.1413C14.6958 28.054 14.6237 27.9496 14.5741 27.8342C14.5245 27.7188 14.4984 27.5947 14.4974 27.4691C14.4963 27.3435 14.5202 27.2189 14.5678 27.1026C14.6153 26.9864 14.6856 26.8808 14.7744 26.792C14.8632 26.7031 14.9688 26.6329 15.0851 26.5853C15.2013 26.5378 15.3259 26.5138 15.4515 26.5149C15.5771 26.516 15.7012 26.5421 15.8166 26.5917C15.932 26.6413 16.0364 26.7133 16.1237 26.8037L17.6552 28.3352L23.2731 22.7172C23.4515 22.5449 23.6905 22.4495 23.9385 22.4517C24.1865 22.4539 24.4238 22.5533 24.5992 22.7287C24.7746 22.9041 24.874 23.1414 24.8762 23.3894C24.8784 23.6374 24.783 23.8764 24.6107 24.0548L18.3173 30.3415C18.1416 30.5173 17.9037 30.6169 17.6552 30.6187V30.6187Z" fill="#E31E24"/>
<path d="M49.3448 38.2693H29.1962C28.9453 38.2693 28.7047 38.1697 28.5273 37.9923C28.3499 37.8149 28.2502 37.5743 28.2502 37.3234C28.2502 37.0725 28.3499 36.8319 28.5273 36.6545C28.7047 36.4771 28.9453 36.3774 29.1962 36.3774H49.3448C49.5957 36.3774 49.8363 36.4771 50.0137 36.6545C50.1911 36.8319 50.2908 37.0725 50.2908 37.3234C50.2908 37.5743 50.1911 37.8149 50.0137 37.9923C49.8363 38.1697 49.5957 38.2693 49.3448 38.2693Z" fill="#E31E24"/>
<path d="M17.6552 41.8652C17.4043 41.8651 17.1637 41.7654 16.9864 41.588L14.7861 39.3877C14.6958 39.3005 14.6237 39.1961 14.5741 39.0807C14.5245 38.9653 14.4984 38.8412 14.4974 38.7156C14.4963 38.5899 14.5202 38.4654 14.5678 38.3491C14.6153 38.2329 14.6856 38.1273 14.7744 38.0384C14.8632 37.9496 14.9688 37.8794 15.0851 37.8318C15.2013 37.7843 15.3259 37.7603 15.4515 37.7614C15.5771 37.7625 15.7012 37.7886 15.8166 37.8382C15.932 37.8878 16.0364 37.9598 16.1237 38.0502L17.6552 39.5817L23.2703 33.9609C23.4487 33.7885 23.6877 33.6932 23.9357 33.6953C24.1837 33.6975 24.421 33.797 24.5963 33.9724C24.7717 34.1478 24.8712 34.385 24.8734 34.633C24.8755 34.8811 24.7802 35.12 24.6079 35.2984L18.3173 41.588C18.1416 41.7638 17.9037 41.8634 17.6552 41.8652V41.8652Z" fill="#E31E24"/>
<path d="M49.3448 49.4793H29.1962C28.9453 49.4793 28.7047 49.3796 28.5273 49.2022C28.3499 49.0248 28.2502 48.7842 28.2502 48.5334C28.2502 48.2825 28.3499 48.0419 28.5273 47.8645C28.7047 47.6871 28.9453 47.5874 29.1962 47.5874H49.3448C49.5957 47.5874 49.8363 47.6871 50.0137 47.8645C50.1911 48.0419 50.2908 48.2825 50.2908 48.5334C50.2908 48.7842 50.1911 49.0248 50.0137 49.2022C49.8363 49.3796 49.5957 49.4793 49.3448 49.4793Z" fill="#E31E24"/>
<path d="M17.6552 53.1104C17.4043 53.1103 17.1637 53.0106 16.9864 52.8332L14.7861 50.633C14.6958 50.5457 14.6237 50.4413 14.5741 50.3259C14.5245 50.2105 14.4984 50.0864 14.4974 49.9608C14.4963 49.8352 14.5202 49.7106 14.5678 49.5943C14.6153 49.4781 14.6856 49.3725 14.7744 49.2837C14.8632 49.1948 14.9688 49.1246 15.0851 49.077C15.2013 49.0295 15.3259 49.0055 15.4515 49.0066C15.5771 49.0077 15.7012 49.0338 15.8166 49.0834C15.932 49.133 16.0364 49.205 16.1237 49.2954L17.6552 50.8259L23.2731 45.2089C23.4515 45.0366 23.6905 44.9412 23.9385 44.9434C24.1865 44.9456 24.4238 45.045 24.5992 45.2204C24.7746 45.3958 24.874 45.6331 24.8762 45.8811C24.8784 46.1291 24.783 46.3681 24.6107 46.5465L18.3173 52.8332C18.1416 53.009 17.9037 53.1086 17.6552 53.1104V53.1104Z" fill="#E31E24"/>
</svg>
