<svg width="71" height="70" viewBox="0 0 71 70" fill="none" xmlns="http://www.w3.org/2000/svg">
<rect width="70" height="70" transform="translate(1)" fill="white"/>
<g clip-path="url(#clip0)">
<path d="M66.8204 2.65426H48.4696V1.02539C48.4696 0.459102 48.0105 0 47.4442 0C46.8779 0 46.4188 0.459102 46.4188 1.02539V2.65426H24.5812V1.02539C24.5812 0.459102 24.1221 0 23.5558 0C22.9895 0 22.5304 0.459102 22.5304 1.02539V2.65426H4.17965C2.15074 2.65426 0.5 4.305 0.5 6.33391V9.05447C0.5 9.62076 0.959102 10.0799 1.52539 10.0799C2.09168 10.0799 2.55078 9.62076 2.55078 9.05447V6.33391C2.55078 5.4358 3.28154 4.70504 4.17965 4.70504H23.5439C23.5521 4.70518 23.5598 4.70518 23.5677 4.70504H47.4324C47.4405 4.70518 47.4481 4.70518 47.4562 4.70504H66.8205C67.7186 4.70504 68.4494 5.4358 68.4494 6.33391V47.475C68.4494 48.3731 67.7186 49.1039 66.8205 49.1039H59.9065C60.1791 48.4854 60.4024 47.8398 60.5709 47.1733H65.4934C66.0596 47.1733 66.5188 46.7142 66.5188 46.1479C66.5188 45.5816 66.0596 45.1225 65.4934 45.1225H60.9074C60.9321 44.8041 60.9449 44.4819 60.9449 44.1571C60.9449 37.3717 55.4244 31.8511 48.6388 31.8511C45.6924 31.8511 42.8417 32.9088 40.6118 34.8291C40.1828 35.1987 40.1345 35.8462 40.5039 36.2753C40.8735 36.7043 41.5208 36.7527 41.9501 36.3832C43.8079 34.7832 46.1833 33.902 48.6388 33.902C54.2935 33.902 58.8941 38.5025 58.8941 44.1573C58.8941 49.8121 54.2936 54.4126 48.6388 54.4126C42.984 54.4126 38.3835 49.8121 38.3835 44.1573C38.3835 42.3423 38.8636 40.5594 39.7718 39.0012C40.057 38.5119 39.8915 37.8842 39.4022 37.599C38.913 37.314 38.2851 37.4793 38 37.9686C36.9092 39.84 36.3328 41.9799 36.3328 44.1574C36.3328 44.4821 36.3455 44.8042 36.3702 45.1228H6.53217V40.5379H8.16104C8.72732 40.5379 9.18643 40.0788 9.18643 39.5125C9.18643 38.9463 8.72732 38.4872 8.16104 38.4872H6.53217V34.3447H10.8153C11.3816 34.3447 11.8407 33.8856 11.8407 33.3193C11.8407 32.753 11.3816 32.2939 10.8153 32.2939H6.53217V27.9746H8.16104C8.72732 27.9746 9.18643 27.5155 9.18643 26.9492C9.18643 26.3829 8.72732 25.9238 8.16104 25.9238H6.53217V21.5154H10.8153C11.3816 21.5154 11.8407 21.0563 11.8407 20.49C11.8407 19.9237 11.3816 19.4646 10.8153 19.4646H6.53217V15.0574H8.16104C8.72732 15.0574 9.18643 14.5983 9.18643 14.032C9.18643 13.4657 8.72732 13.0066 8.16104 13.0066H6.53217V8.68643H10.8153C11.3816 8.68643 11.8407 8.22732 11.8407 7.66104C11.8407 7.09475 11.3816 6.63564 10.8153 6.63564H5.50678C4.94049 6.63564 4.48139 7.09475 4.48139 7.66104V46.1479C4.48139 46.7142 4.94049 47.1733 5.50678 47.1733H36.7064C37.8771 51.8023 41.6776 55.3957 46.4188 56.2626V59.7209H24.5812V51.1547H34.6158C35.1821 51.1547 35.6412 50.6956 35.6412 50.1293C35.6412 49.563 35.1821 49.1039 34.6158 49.1039H4.17965C3.28154 49.1039 2.55078 48.3731 2.55078 47.475V13.1022C2.55078 12.5359 2.09168 12.0768 1.52539 12.0768C0.959102 12.0768 0.5 12.5359 0.5 13.1022V47.475C0.5 49.5039 2.15074 51.1547 4.17965 51.1547H22.5304V63.9678H17.3183C16.0211 63.9678 14.9658 65.0232 14.9658 66.3204V67.6475C14.9658 68.9447 16.0211 70 17.3183 70H53.6818C54.979 70 56.0343 68.9447 56.0343 67.6475V66.3204C56.0343 65.0232 54.979 63.9678 53.6818 63.9678H48.4697V56.4621C48.5259 56.4628 48.5823 56.4632 48.6387 56.4632C52.8266 56.4632 56.5329 54.3599 58.7567 51.1547H66.8204C68.8493 51.1547 70.5 49.5039 70.5 47.475V6.33391C70.5 4.305 68.8493 2.65426 66.8204 2.65426ZM53.6817 66.0186C53.8481 66.0186 53.9834 66.154 53.9834 66.3204V67.6475C53.9834 67.8139 53.8481 67.9492 53.6817 67.9492H17.3183C17.1519 67.9492 17.0166 67.8139 17.0166 67.6475V66.3204C17.0166 66.154 17.1519 66.0186 17.3183 66.0186H26.5859C27.1522 66.0186 27.6113 65.5595 27.6113 64.9932C27.6113 64.4269 27.1522 63.9678 26.5859 63.9678H24.5811V61.7717H46.4188V63.9678H30.7221C30.1558 63.9678 29.6967 64.4269 29.6967 64.9932C29.6967 65.5595 30.1558 66.0186 30.7221 66.0186H53.6817Z" fill="#E31E24"/>
<path d="M49.5413 35.0103H49.1343C48.4716 35.0103 47.8636 35.344 47.5079 35.9032L42.3393 44.0252C41.9615 44.619 41.9371 45.3709 42.2758 45.9879C42.6144 46.6048 43.2619 46.988 43.9657 46.988H45.8086V51.3773C45.8086 52.4403 46.6735 53.3051 47.7365 53.3051H48.1436C48.8061 53.3051 49.4141 52.9714 49.77 52.4122L54.9385 44.2902C55.3164 43.6964 55.3408 42.9443 55.0021 42.3274C54.6634 41.7106 54.0159 41.3273 53.3121 41.3273H51.4693V36.9381C51.4692 35.8751 50.6044 35.0103 49.5413 35.0103ZM53.088 43.3783L48.0759 51.2545H47.8594V45.9627C47.8594 45.3964 47.4003 44.9373 46.834 44.9373H44.1897L49.2018 37.061H49.4184V42.3529C49.4184 42.9192 49.8775 43.3783 50.4438 43.3783H53.088V43.3783Z" fill="#E31E24"/>
<path d="M32.9255 28.4981C32.493 28.5897 32.0518 28.5054 31.6837 28.2601L27.798 25.6695C26.3394 24.6969 24.3836 24.8937 23.1477 26.1366L17.502 31.8141C17.1985 32.1194 16.7775 32.2945 16.347 32.2945H14.7966C14.2303 32.2945 13.7712 32.7536 13.7712 33.3199C13.7712 33.8862 14.2303 34.3453 14.7966 34.3453H16.347C17.3195 34.3453 18.2705 33.9498 18.9563 33.2602L24.602 27.5826C25.1491 27.0325 26.0147 26.9453 26.6605 27.3759L30.5464 29.9665C31.3777 30.5209 32.374 30.7117 33.3517 30.5043C34.3292 30.2968 35.162 29.7175 35.6966 28.8731L42.3635 18.3418C42.993 18.8452 43.7907 19.1464 44.6576 19.1464C45.6528 19.1464 46.5571 18.7492 47.22 18.1052L49.9874 20.5759C50.6625 21.1789 51.5328 21.5108 52.4382 21.5108H65.2278C65.7941 21.5108 66.2532 21.0517 66.2532 20.4854C66.2532 19.9191 65.7941 19.46 65.2278 19.46H52.4378C52.037 19.46 51.6518 19.3131 51.3529 19.0462L48.2477 16.2738C48.3061 16.014 48.3369 15.7439 48.3369 15.4668C48.3369 13.4379 46.6861 11.7871 44.6572 11.7871C42.6283 11.7871 40.9776 13.4379 40.9776 15.4668C40.9776 15.8161 41.0265 16.1543 41.1179 16.4748L33.9634 27.7762C33.7268 28.1497 33.3583 28.4062 32.9255 28.4981ZM44.6572 13.8378C45.5553 13.8378 46.2861 14.5685 46.2861 15.4666C46.2861 16.3647 45.5553 17.0955 44.6572 17.0955C43.7591 17.0955 43.0284 16.3647 43.0284 15.4666C43.0284 14.5685 43.7591 13.8378 44.6572 13.8378Z" fill="#E31E24"/>
<path d="M65.2275 8.68652C65.7938 8.68652 66.2529 8.22742 66.2529 7.66113C66.2529 7.09484 65.7938 6.63574 65.2275 6.63574H59.9189C59.3527 6.63574 58.8936 7.09484 58.8936 7.66113C58.8936 8.22742 59.3527 8.68652 59.9189 8.68652H65.2275Z" fill="#E31E24"/>
</g>
<defs>
<clipPath id="clip0">
<rect width="70" height="70" fill="white" transform="translate(0.5)"/>
</clipPath>
</defs>
</svg>
