<svg width="72" height="70" viewBox="0 0 72 70" fill="none" xmlns="http://www.w3.org/2000/svg">
<rect width="70" height="70" transform="translate(1.25)" fill="white"/>
<g clip-path="url(#clip0)">
<path d="M70.6215 16.6C70.3806 15.7041 69.7928 14.9403 68.9885 14.4773C68.1837 14.0119 67.2269 13.8861 66.3292 14.127C65.4327 14.3685 64.669 14.9557 64.2059 15.7599L63.6227 16.7749C63.0685 16.4565 62.3605 16.6439 62.0364 17.1952L59.0736 22.2456L58.0586 21.6623C57.7898 21.5068 57.4697 21.4647 57.1701 21.5456C56.8699 21.627 56.6148 21.8241 56.4604 22.0941C56.1443 22.6517 56.3368 23.3602 56.8921 23.6803L57.9071 24.2635L47.9921 41.4456L45.5424 47.9899L44.376 50.1707C43.693 51.3588 43.7659 52.8357 44.5628 53.9504L41.9382 57.1695L41.2035 55.327C40.872 54.5057 40.1048 53.943 39.2225 53.874C38.3397 53.8046 37.4939 54.2408 37.0388 55.0001L36.6191 55.7115L36.2226 51.0456C36.1315 49.9418 35.2766 49.0544 34.1773 48.9211C33.0775 48.7884 32.0363 49.4474 31.6849 50.4977L28.8155 59.1061C28.615 59.7149 28.943 60.3711 29.5502 60.5761C29.6641 60.6291 29.7866 60.661 29.9119 60.6689C30.4131 60.6707 30.8596 60.3511 31.0202 59.8761L33.8777 51.2677L34.2861 56.0031C34.3704 57.0135 35.0966 57.8536 36.0842 58.0826C37.0719 58.3115 38.0937 57.8764 38.6137 57.0066L39.0454 56.2947L39.7687 58.1264C40.0757 58.8982 40.77 59.4489 41.5919 59.5714C42.4138 59.6939 43.2385 59.3698 43.758 58.721L46.4759 55.2803C46.7767 55.3589 47.0865 55.3982 47.3975 55.3971C48.6477 55.4067 49.8085 54.7483 50.4418 53.6701L51.6083 51.7222L56.0526 46.3216L66.0724 28.9294L67.0873 29.5126C67.3579 29.6676 67.5549 29.9233 67.6353 30.2246C67.7161 30.5236 67.674 30.8426 67.5191 31.1108L62.8532 39.1947C62.6772 39.4601 62.6174 39.7859 62.688 40.0969C62.7586 40.4073 62.9529 40.6755 63.2263 40.839C63.4951 40.9951 63.8152 41.0372 64.1148 40.9563C64.4149 40.8749 64.6701 40.6778 64.8245 40.4078L69.4903 32.324C69.9557 31.5192 70.0815 30.5623 69.84 29.6647C69.5985 28.7682 69.0113 28.0044 68.2071 27.5414L67.1921 26.9581L70.1083 21.9072C70.4267 21.3531 70.2393 20.6457 69.6885 20.321L70.2718 19.306C70.7496 18.4887 70.8761 17.5125 70.6215 16.6V16.6ZM66.2239 16.9264C66.3782 16.6564 66.6345 16.4588 66.9358 16.3785C67.2354 16.3044 67.5521 16.346 67.8221 16.4952C68.0926 16.6496 68.2897 16.9059 68.3706 17.2066C68.4446 17.5062 68.403 17.8229 68.2538 18.0929L67.6706 19.1078L65.6406 17.9414L66.2239 16.9264ZM50.3251 49.4947L49.7418 49.1563L48.0155 48.1528L49.6718 43.7204L53.346 45.8432L50.3251 49.4947ZM46.8256 52.8653C46.333 52.5219 46.1815 51.8612 46.4759 51.3372L47.0592 50.3228L49.0885 51.4893L48.5053 52.4923C48.3418 52.7759 48.0673 52.9775 47.7478 53.0487C47.4283 53.1194 47.0939 53.0533 46.8256 52.8653ZM54.676 43.9306L50.64 41.5977L59.9718 25.43L64.0077 27.7629L54.676 43.9306ZM65.1742 25.745L61.1382 23.412L63.4712 19.3761L67.5071 21.709L65.1742 25.745Z" fill="#E31E24"/>
<path d="M19.1563 52.2814L15.0276 56.3994L12.5545 53.9263C12.0994 53.4741 11.3647 53.4741 10.9096 53.9263C10.6886 54.1456 10.5645 54.4435 10.5645 54.7545C10.5645 55.0655 10.6886 55.3639 10.9096 55.5826L13.3827 58.0557C13.8201 58.4897 14.4113 58.7329 15.0276 58.7323C15.6472 58.7357 16.2436 58.4925 16.6839 58.0557L20.8012 53.9263C21.1977 53.4633 21.1709 52.7735 20.7403 52.343C20.3091 51.9118 19.6194 51.885 19.1563 52.2814Z" fill="#E31E24"/>
<path d="M5.41553 55.4181C5.41553 60.8944 9.85471 65.3331 15.3305 65.3331C20.8063 65.3331 25.2455 60.8944 25.2455 55.4181C25.2455 54.7739 24.7232 54.2516 24.079 54.2516C23.4348 54.2516 22.9125 54.7739 22.9125 55.4181C22.9125 59.6055 19.5179 63.0001 15.3305 63.0001C11.1431 63.0001 7.74846 59.6055 7.74846 55.4181C7.74846 51.2306 11.1431 47.836 15.3305 47.836C16.972 47.8315 18.5696 48.364 19.8796 49.3528C20.3951 49.7395 21.1264 49.6347 21.5126 49.1193C21.8993 48.6038 21.7951 47.8731 21.2796 47.4863C18.2752 45.2331 14.2552 44.8709 10.8964 46.55C7.53715 48.2296 5.41553 51.6629 5.41553 55.4181Z" fill="#E31E24"/>
<path d="M42.7427 9.3427C43.3869 9.3427 43.9091 8.82098 43.9091 8.17623C43.9091 7.53206 43.3869 7.00977 42.7427 7.00977H12.4145C11.7703 7.00977 11.248 7.53206 11.248 8.17623V12.8421C11.248 13.4868 11.7703 14.0086 12.4145 14.0086H42.7427C43.3869 14.0086 43.9091 13.4868 43.9091 12.8421C43.9091 12.1979 43.3869 11.6756 42.7427 11.6756H13.581V9.3427H42.7427Z" fill="#E31E24"/>
<path d="M15.9138 16.3423C15.2696 16.3423 14.7473 16.8646 14.7473 17.5088C14.7473 18.1535 15.2696 18.6752 15.9138 18.6752H39.2431C39.8873 18.6752 40.4096 18.1535 40.4096 17.5088C40.4096 16.8646 39.8873 16.3423 39.2431 16.3423H15.9138Z" fill="#E31E24"/>
<path d="M46.2426 24.5083H20.5803C19.9361 24.5083 19.4138 25.0306 19.4138 25.6748C19.4138 26.3195 19.9361 26.8412 20.5803 26.8412H46.2426C46.8867 26.8412 47.409 26.3195 47.409 25.6748C47.409 25.0306 46.8867 24.5083 46.2426 24.5083Z" fill="#E31E24"/>
<path d="M34.5771 32.6733C34.5771 32.0291 34.0548 31.5068 33.4106 31.5068H10.0813C9.43709 31.5068 8.91479 32.0291 8.91479 32.6733C8.91479 33.3181 9.43709 33.8398 10.0813 33.8398H33.4106C34.0548 33.8398 34.5771 33.3181 34.5771 32.6733Z" fill="#E31E24"/>
<path d="M46.2421 31.5068H38.0769C37.4327 31.5068 36.9104 32.0291 36.9104 32.6733C36.9104 33.3181 37.4327 33.8398 38.0769 33.8398H46.2421C46.8863 33.8398 47.4086 33.3181 47.4086 32.6733C47.4086 32.0291 46.8863 31.5068 46.2421 31.5068Z" fill="#E31E24"/>
<path d="M21.7459 39.6713C22.3901 39.6713 22.9124 39.1496 22.9124 38.5048C22.9124 37.8607 22.3901 37.3384 21.7459 37.3384H10.0813C9.43709 37.3384 8.91479 37.8607 8.91479 38.5048C8.91479 39.1496 9.43709 39.6713 10.0813 39.6713H21.7459Z" fill="#E31E24"/>
<path d="M26.4118 39.6713H34.5771C35.2213 39.6713 35.7436 39.1496 35.7436 38.5048C35.7436 37.8607 35.2213 37.3384 34.5771 37.3384H26.4118C25.7677 37.3384 25.2454 37.8607 25.2454 38.5048C25.2454 39.1496 25.7677 39.6713 26.4118 39.6713Z" fill="#E31E24"/>
<path d="M53.2411 53.6688C52.5969 53.6688 52.0746 54.191 52.0746 54.8352V66.4999C52.0746 67.1446 51.5523 67.6664 50.9081 67.6664H4.2494C3.60523 67.6664 3.08294 67.1446 3.08294 66.4999V3.51063C3.08294 2.86646 3.60523 2.34417 4.2494 2.34417H50.9081C51.5523 2.34417 52.0746 2.86646 52.0746 3.51063V25.4172C52.0746 26.0614 52.5969 26.5837 53.2411 26.5837C53.8852 26.5837 54.4075 26.0614 54.4075 25.4172V3.51063C54.4075 1.5781 52.8407 0.0112305 50.9081 0.0112305H4.2494C2.31687 0.0112305 0.75 1.5781 0.75 3.51063V66.4999C0.75 68.433 2.31687 69.9993 4.2494 69.9993H50.9081C52.8407 69.9993 54.4075 68.433 54.4075 66.4999V54.8352C54.4075 54.191 53.8852 53.6688 53.2411 53.6688Z" fill="#E31E24"/>
</g>
<defs>
<clipPath id="clip0">
<rect width="70" height="70" fill="white" transform="translate(0.75)"/>
</clipPath>
</defs>
</svg>
