<svg width="71" height="70" viewBox="0 0 71 70" fill="none" xmlns="http://www.w3.org/2000/svg">
<rect width="70" height="70" transform="translate(0.5)" fill="white"/>
<path d="M2.79308 25.1882C2.06246 24.9976 1.31571 25.4352 1.12499 26.1657C1.10749 26.2327 1.09026 26.3 1.07331 26.3672C0.887643 27.0991 1.33047 27.8428 2.06233 28.0286C2.17512 28.0572 2.28818 28.0709 2.39947 28.0709C3.01019 28.0709 3.56664 27.6587 3.72373 27.0396L3.77076 26.8563C3.96148 26.1255 3.52371 25.3788 2.79308 25.1882Z" fill="#E31E24"/>
<path d="M46.2634 1.85323C42.6454 0.624275 38.8559 0.000976562 35 0.000976562C28.2334 0.000976562 21.6671 1.9354 16.011 5.59521C10.5028 9.15918 6.11611 14.1725 3.32487 20.0932C3.00303 20.7763 3.29561 21.591 3.97866 21.9128C4.16705 22.0017 4.36543 22.0436 4.56067 22.0436C5.0735 22.0436 5.56513 21.7538 5.79824 21.2593C8.2727 16.0103 12.0874 11.6282 16.7151 8.44579C16.7602 8.46903 16.8067 8.49049 16.8552 8.50895L25.2088 11.687C25.4044 11.7615 25.5306 11.9519 25.5231 12.161C25.5171 12.3301 25.5425 12.4991 25.598 12.659C26.0487 13.9553 27.0377 14.9919 28.3115 15.5026C29.5854 16.0133 31.0165 15.9472 32.2379 15.3216C32.243 15.319 32.248 15.3164 32.2531 15.3137L34.0681 14.3547C36.0867 13.2883 38.4165 13.4214 40.3003 14.7113C42.1844 16.0012 43.1517 18.1253 42.8876 20.3936L42.8707 20.5376C42.7683 21.4169 42.1615 22.1127 41.3245 22.3102C40.4205 22.5238 39.3909 22.7691 38.5088 22.98C36.7209 23.4075 35.3305 24.848 34.9665 26.65L33.7932 32.459C33.517 33.8259 33.854 35.2379 34.7177 36.333C35.5812 37.4281 36.8759 38.0849 38.2696 38.1351L39.7753 38.1892C40.0344 38.1985 40.2855 38.2571 40.5222 38.3629C40.7035 38.444 40.893 38.4824 41.0795 38.4824C41.6021 38.4822 42.1012 38.1809 42.3284 37.6729C42.6365 36.9835 42.3277 36.1748 41.6384 35.8667C41.0793 35.6168 40.4857 35.4788 39.8737 35.4568L38.3681 35.4027C37.7783 35.3815 37.2303 35.1035 36.8647 34.6399C36.4993 34.1764 36.3567 33.5788 36.4736 33.0004L37.6469 27.1914C37.8007 26.4296 38.3887 25.8203 39.1448 25.6395C40.0247 25.4291 41.0514 25.1845 41.953 24.9715C43.8931 24.5135 45.3535 22.8588 45.5871 20.8536L45.6039 20.7097C45.9875 17.4148 44.5823 14.329 41.8452 12.455C39.1083 10.5813 35.7235 10.3876 32.7909 11.9372L30.9843 12.8916C30.4615 13.1571 29.8739 13.1832 29.3295 12.9646C28.842 12.7691 28.4649 12.4083 28.2516 11.9378C28.1723 10.6874 27.371 9.5841 26.1814 9.13143L19.6509 6.64699C24.2899 4.13164 29.5517 2.73548 35 2.73548C38.5561 2.73548 42.0496 3.30969 45.3838 4.4424C46.0989 4.68535 46.8752 4.30268 47.1182 3.58764C47.361 2.87274 46.9783 2.09618 46.2634 1.85323Z" fill="#E31E24"/>
<path d="M68.6405 25.3096C68.4319 24.5839 67.6743 24.1647 66.9489 24.3735C66.2232 24.5821 65.8041 25.3395 66.0128 26.0652C66.844 28.956 67.2655 31.962 67.2655 35C67.2655 38.3081 66.767 41.5697 65.7843 44.6942C65.5578 45.4145 65.9579 46.1821 66.6782 46.4086C66.8148 46.4515 66.9528 46.472 67.0889 46.472C67.6699 46.472 68.209 46.0985 68.3926 45.5147C69.459 42.1243 69.9998 38.5867 69.9998 35C69.9998 31.7063 69.5424 28.446 68.6405 25.3096Z" fill="#E31E24"/>
<path d="M64.8193 50.6597C64.2424 50.318 63.3781 50.4145 62.93 51.1666C62.9274 51.171 62.9248 51.1754 62.9222 51.1799C62.4823 51.937 62.818 52.7394 63.3966 53.0777C63.6017 53.1976 63.8424 53.2624 64.0878 53.2624C64.5347 53.2624 64.9964 53.0476 65.2831 52.5602C65.7272 51.8054 65.3959 51.0012 64.8193 50.6597Z" fill="#E31E24"/>
<path d="M60.9802 56.4032C60.4176 55.8997 59.5533 55.9474 59.0496 56.5101C57.1815 58.5973 55.0655 60.4109 52.7677 61.9258C51.1911 61.2139 49.5394 59.5262 49.7011 56.8811L50.5638 46.6617C50.6274 45.9093 50.0689 45.2479 49.3165 45.1843C48.5646 45.1232 47.9027 45.6792 47.8391 46.4317L46.9752 56.666C46.9744 56.6754 46.9737 56.685 46.973 56.6944C46.801 59.4071 48.008 61.9332 50.0973 63.507C45.4909 65.9456 40.3133 67.2652 34.9999 67.2652C33.5123 67.2652 32.0299 67.1613 30.5642 66.9584L31.8394 64.643H32.9549C35.8517 64.643 38.2083 62.2864 38.2083 59.3896V57.5024C38.2083 56.9645 38.376 56.4505 38.6935 56.0162C39.1391 55.4066 39.006 54.5511 38.3964 54.1056C37.7867 53.6601 36.9313 53.793 36.4859 54.4028C35.8239 55.3087 35.4741 56.3805 35.4741 57.5024V59.3896C35.4741 60.7785 34.3441 61.9086 32.955 61.9086H31.0317C30.5333 61.9086 30.0745 62.1797 29.8342 62.6163L27.7301 66.4368C24.7791 65.7567 21.9303 64.665 19.2842 63.1861C18.6246 62.8181 17.792 63.0535 17.4237 63.7127C17.0554 64.372 17.2911 65.2047 17.9502 65.5731C23.1325 68.469 29.0282 69.9997 35.0001 69.9997C44.943 69.9997 54.4514 65.7476 61.0871 58.3338C61.5907 57.7711 61.5428 56.9068 60.9802 56.4032Z" fill="#E31E24"/>
<path d="M58.5383 5.86426C55.3625 5.86426 52.7788 8.44796 52.7788 11.6238C52.7788 14.7996 55.3625 17.3835 58.5383 17.3835C61.7142 17.3835 64.2979 14.7998 64.2979 11.6238C64.2979 8.44796 61.7142 5.86426 58.5383 5.86426ZM58.5383 14.6491C56.8702 14.6491 55.5132 13.2919 55.5132 11.6238C55.5132 9.95569 56.8702 8.59862 58.5383 8.59862C60.2064 8.59862 61.5635 9.95569 61.5635 11.6238C61.5635 13.2919 60.2064 14.6491 58.5383 14.6491Z" fill="#E31E24"/>
<path d="M33.3874 46.4761L27.4017 37.8498C27.3394 37.7599 27.2673 37.6811 27.1893 37.6112C25.6648 31.6443 20.244 27.2192 13.8088 27.2192C6.19481 27.2192 0.000244141 33.4138 0.000244141 41.0278C0.000244141 44.1813 1.09085 47.2629 3.07189 49.7103C3.07504 49.7146 3.07832 49.7188 3.0816 49.7231L12.7309 62.091C12.99 62.4231 13.3876 62.6172 13.8086 62.6172C14.2297 62.6172 14.6273 62.4232 14.8864 62.0913L24.4896 49.7881C24.5089 49.7635 24.5269 49.7386 24.5442 49.7132C26.155 47.724 27.1768 45.3187 27.5036 42.7929L31.1408 48.035C31.4063 48.4177 31.8322 48.6229 32.2653 48.6229C32.5343 48.6229 32.8059 48.5437 33.0435 48.3788C33.664 47.9485 33.8179 47.0966 33.3874 46.4761ZM22.3508 48.076C22.3162 48.1178 22.2844 48.1616 22.2555 48.2067L13.8092 59.0276L5.26458 48.0757C5.25036 48.0562 5.23559 48.0372 5.22028 48.0183C3.6174 46.0516 2.73461 43.5691 2.73461 41.0278C2.73461 34.9215 7.7024 29.9536 13.8088 29.9536C19.9152 29.9536 24.883 34.9215 24.883 41.0278C24.883 43.5964 23.9836 46.0996 22.3508 48.076Z" fill="#E31E24"/>
<path d="M13.8088 33.2959C9.43642 33.2959 5.87915 36.8532 5.87915 41.2256C5.87915 45.598 9.43642 49.1552 13.8088 49.1552C18.1812 49.1552 21.7385 45.598 21.7385 41.2256C21.7385 36.8532 18.1813 33.2959 13.8088 33.2959ZM13.8088 46.4209C10.9441 46.4209 8.61351 44.0902 8.61351 41.2256C8.61351 38.3609 10.9441 36.0303 13.8088 36.0303C16.6735 36.0303 19.0041 38.3609 19.0041 41.2256C19.0041 44.0902 16.6736 46.4209 13.8088 46.4209Z" fill="#E31E24"/>
<path d="M58.5384 0C52.2185 0 47.0769 5.14156 47.0769 11.4615C47.0769 14.0775 47.981 16.6338 49.6236 18.6648C49.6262 18.6681 49.6289 18.6716 49.6315 18.675L57.4605 28.7097C57.7196 29.0418 58.1172 29.236 58.5383 29.236C58.5383 29.236 58.5383 29.236 58.5384 29.236C58.9595 29.236 59.3571 29.042 59.6162 28.71L67.4079 18.7278C67.4247 18.7063 67.4407 18.6846 67.456 18.6623C69.0973 16.6311 69.9999 14.0788 69.9999 11.4615C69.9999 5.14156 64.8584 0 58.5384 0ZM65.2702 17.0158C65.238 17.0546 65.2084 17.095 65.1812 17.1365L58.5387 25.6464L51.8123 17.0248C51.7987 17.0064 51.7845 16.9881 51.7699 16.9703C50.5069 15.4206 49.8113 13.4641 49.8113 11.4615C49.8113 6.64943 53.7262 2.73436 58.5384 2.73436C63.3506 2.73436 67.2656 6.64943 67.2656 11.4615C67.2656 13.4857 66.557 15.4582 65.2702 17.0158Z" fill="#E31E24"/>
<path d="M27.7893 57.0513C27.4666 56.3687 26.6518 56.0771 25.969 56.3992L25.3509 56.6912C24.6681 57.0137 24.3763 57.8286 24.6986 58.5113C24.9321 59.0054 25.4234 59.2947 25.9358 59.2947C26.1314 59.2947 26.3302 59.2525 26.5189 59.1635L27.137 58.8715C27.8198 58.5489 28.1117 57.7341 27.7893 57.0513Z" fill="#E31E24"/>
<path d="M58.5385 34.7388C57.7834 34.7388 57.1713 35.351 57.1713 36.106C57.1713 36.2823 57.1613 36.4602 57.1416 36.6344C57.0567 37.3847 57.5963 38.0616 58.3465 38.1465C58.3987 38.1523 58.4504 38.1552 58.5017 38.1552C59.188 38.1552 59.7797 37.6397 59.8585 36.9414C59.8896 36.6655 59.9055 36.3846 59.9055 36.106C59.9056 35.3509 59.2936 34.7388 58.5385 34.7388Z" fill="#E31E24"/>
<path d="M49.6641 40.7432H48.9805C48.2254 40.7432 47.6133 41.3554 47.6133 42.1103C47.6133 42.8653 48.2254 43.4775 48.9805 43.4775H49.6641C50.4192 43.4775 51.0312 42.8653 51.0312 42.1103C51.0312 41.3554 50.4192 40.7432 49.6641 40.7432Z" fill="#E31E24"/>
<path d="M56.8223 40.5268C56.4296 39.882 55.5886 39.6777 54.9435 40.07C54.7939 40.1612 54.6373 40.2446 54.4779 40.3184C53.7926 40.6355 53.4942 41.4483 53.8114 42.1334C54.0424 42.6327 54.5366 42.9266 55.053 42.9266C55.2453 42.9266 55.4405 42.8859 55.6264 42.7999C55.8793 42.6828 56.1279 42.5502 56.3655 42.4056C57.0104 42.0129 57.2149 41.1718 56.8223 40.5268Z" fill="#E31E24"/>
<path d="M36.2122 48.7331C35.5752 48.328 34.7301 48.5163 34.325 49.1534L33.9582 49.7303C33.5531 50.3676 33.7413 51.2125 34.3785 51.6177C34.606 51.7624 34.8597 51.8313 35.1106 51.8313C35.5627 51.8313 36.0052 51.6072 36.2656 51.1974L36.6324 50.6205C37.0375 49.9832 36.8494 49.1383 36.2122 48.7331Z" fill="#E31E24"/>
<path d="M39.5129 43.5407C38.8758 43.1357 38.0309 43.3237 37.6257 43.9608L37.259 44.5376C36.8539 45.1749 37.042 46.0198 37.6793 46.4249C37.9068 46.5696 38.1607 46.6386 38.4115 46.6386C38.8637 46.6386 39.306 46.4145 39.5665 46.0048L39.9332 45.428C40.3382 44.7906 40.1501 43.9458 39.5129 43.5407Z" fill="#E31E24"/>
<path d="M33.3523 54.425C33.0295 53.7423 32.2146 53.4505 31.532 53.7729L30.9139 54.0649C30.2311 54.3874 29.9392 55.2023 30.2616 55.885C30.4951 56.3792 30.9864 56.6684 31.4988 56.6684C31.6944 56.6684 31.8932 56.6262 32.0819 56.5372L32.7 56.2452C33.3828 55.9226 33.6747 55.1078 33.3523 54.425Z" fill="#E31E24"/>
<path d="M43.5117 40.7432H42.8281C42.073 40.7432 41.4609 41.3554 41.4609 42.1103C41.4609 42.8653 42.073 43.4775 42.8281 43.4775H43.5117C44.2668 43.4775 44.8789 42.8653 44.8789 42.1103C44.8789 41.3554 44.2668 40.7432 43.5117 40.7432Z" fill="#E31E24"/>
</svg>
