<svg width="282" height="61" viewBox="0 0 282 61" fill="none" xmlns="http://www.w3.org/2000/svg">
<path d="M279.615 60.5031C280.443 60.4979 281.11 59.822 281.105 58.9936L281.019 45.4939C281.014 44.6655 280.338 43.9982 279.51 44.0035C278.682 44.0087 278.014 44.6845 278.019 45.5129L278.096 57.5127L266.096 57.5889C265.267 57.5941 264.6 58.27 264.605 59.0984C264.611 59.9268 265.287 60.5941 266.115 60.5888L279.615 60.5031ZM2.69131 60.0347C72.602 -13.3468 200.137 -17.3541 278.551 60.0705L280.659 57.9358C201.073 -20.6458 71.6086 -16.6533 0.519241 57.9653L2.69131 60.0347Z" fill="#BBBBC2"/>
</svg>
