<svg width="283" height="66" viewBox="0 0 283 66" fill="none" xmlns="http://www.w3.org/2000/svg">
<path d="M280.009 3.52959C280.838 3.53485 281.505 4.21067 281.5 5.03908L281.414 18.5388C281.409 19.3672 280.733 20.0345 279.905 20.0293C279.076 20.024 278.409 19.3482 278.414 18.5198L278.49 6.52001L266.491 6.44383C265.662 6.43857 264.995 5.76275 265 4.93434C265.005 4.10592 265.681 3.43863 266.51 3.44389L280.009 3.52959ZM3.08608 3.99803C72.9967 77.3795 200.532 81.3868 278.946 3.96219L281.054 6.09693C201.468 84.6785 72.0034 80.6861 0.914016 6.06737L3.08608 3.99803Z" fill="#E31E24"/>
</svg>
