<svg width="197" height="34" viewBox="0 0 197 34" fill="none" xmlns="http://www.w3.org/2000/svg">
  <path fill-rule="evenodd" clip-rule="evenodd" d="M169.528 22.429L154.184 22.4854C154.184 25.8709 154.93 28.3113 156.423 29.8065C160.069 33.4319 164.346 32.6842 167.791 29.1294L169.513 29.7642C168.566 31.0056 167.303 32.0071 165.71 32.783C162.451 34.3488 159.179 34.4616 155.921 32.783C154.313 31.9507 152.978 30.6247 151.916 28.8191C149.304 24.3756 149.634 17.3789 153.179 13.542C156.337 10.1142 160.815 9.18318 164.805 11.6941C166.341 12.6533 167.533 14.0781 168.394 15.9683C169.269 17.8444 169.643 19.6924 169.528 22.429ZM165.595 20.835C165.609 19.0011 165.38 17.8444 164.892 16.4056C164.404 14.9809 163.7 13.8524 162.782 13.0342C160.356 10.9041 157.643 11.8916 155.921 14.3884C154.758 16.067 154.184 17.915 154.184 20.835H165.595ZM132.453 27.747L142.902 14.3038V12.879L138.596 11.0452H148.83V12.879H146.462V31.8096L149.82 33.5024H141.553V31.8096H142.902V17.0827L132.453 30.3849V31.8096L135.812 33.5024H126.482V31.8096H128.85V12.879L124.501 11.0452H134.821V12.879H132.453V27.747ZM45.2275 33.5024V31.8096H47.5958V12.879L43.2611 11.0452H53.1649V12.879H51.1698V31.8096H60.0545V12.879L56.093 11.0452H65.6236V12.879H63.6285V31.8096H72.5563V12.879L68.5086 11.0452H78.4125V12.879H76.0442V31.8096L80.3789 33.5024H45.2275ZM107.062 22.429V31.8096L110.464 33.5024H101.134V31.8096H103.502V12.879L99.1531 11.0452H109.473V12.879H107.062V20.835H117.468V12.879L113.133 11.0452H123.41V12.879H120.956V31.8096L125.377 33.5024H115.1V31.8096H117.468V22.429H107.062ZM99.1962 22.429L83.838 22.4854C83.838 25.8709 84.5988 28.3113 86.0915 29.8065C89.7229 33.4319 94.0146 32.6842 97.445 29.1294L99.1674 29.7642C98.2201 31.0056 96.957 32.0071 95.3782 32.783C92.1056 34.3488 88.833 34.4616 85.5891 32.783C83.9816 31.9507 82.6467 30.6247 81.5846 28.8191C78.9723 24.3756 79.288 17.3789 82.8333 13.542C85.9911 10.1142 90.4693 9.18318 94.4739 11.6941C95.9953 12.6533 97.1867 14.0781 98.0622 15.9683C98.9234 17.8444 99.2966 19.6924 99.1962 22.429ZM95.249 20.835C95.2777 19.0011 95.048 17.8444 94.56 16.4056C94.072 14.9809 93.3543 13.8524 92.4357 13.0342C90.01 10.9041 87.2972 11.8916 85.5891 14.3884C84.4265 16.067 83.838 17.915 83.838 20.835H95.249ZM43.3902 22.429L28.0321 22.4854C28.0321 25.8709 28.7785 28.3113 30.2856 29.8065C33.917 33.4319 38.2087 32.6842 41.6391 29.1294L43.3615 29.7642C42.4142 31.0056 41.1511 32.0071 39.5722 32.783C36.2997 34.3488 33.0271 34.4616 29.7832 32.783C28.1757 31.9507 26.8265 30.6247 25.7643 28.8191C23.1663 24.3756 23.4821 17.3789 27.0274 13.542C30.1851 10.1142 34.6634 9.18318 38.668 11.6941C40.1894 12.6533 41.3808 14.0781 42.2563 15.9683C43.1175 17.8444 43.4907 19.6924 43.3902 22.429ZM39.4431 20.835C39.4718 19.0011 39.2421 17.8444 38.7541 16.4056C38.2661 14.9809 37.5484 13.8524 36.6298 13.0342C34.2041 10.9041 31.4913 11.8916 29.7832 14.3884C28.6206 16.067 28.0321 17.915 28.0321 20.835H39.4431ZM8.64073 1.66454L8.66944 20.8773H11.6549C22.3913 20.8773 22.3195 1.66454 11.6549 1.66454H8.64073ZM8.61202 31.852L13.6213 33.5024H1.98077V31.8096H4.63614V1.69275L0 0C4.26295 0 9.44452 0.0564251 13.6501 0.0564251C26.8695 0.380869 26.8695 22.1468 13.6501 22.4854H8.66944V23.4446L8.61202 31.852Z" fill="#727271"></path>
  <path fill-rule="evenodd" clip-rule="evenodd" d="M197 0.0702586V22.4287H174.264V1.66427L169.843 0.0561523L197 0.0702586Z" fill="#E31E24"></path>
  <path fill-rule="evenodd" clip-rule="evenodd" d="M181.756 11.5957V18.4372L184.24 19.6786H177.436V18.4372H179.158V4.10523L175.986 2.76514H183.522V4.10523H181.756V10.4389H189.349V4.10523L186.177 2.76514H193.67V4.10523H191.89V18.4372L195.119 19.6786H187.613V18.4372H189.349V11.5957H181.756Z" fill="#FEFEFE"></path>
</svg>