<svg width="24" height="24" viewBox="0 0 24 24" fill="none" xmlns="http://www.w3.org/2000/svg">
<path d="M1.55543 23.4C1.15739 23.4 0.759067 23.2515 0.456123 22.9558C-0.152041 22.3631 -0.152041 21.4048 0.456123 20.8121L21.3453 0.444521C21.9531 -0.148174 22.936 -0.148174 23.5439 0.444521C24.152 1.03722 24.152 1.99552 23.5439 2.58822L2.65474 22.9558C2.3498 23.2529 1.95347 23.4 1.55543 23.4Z" fill="#E31E24"/>
<path d="M22.4446 23.4C22.0465 23.4 21.6485 23.2515 21.3453 22.9558L0.456123 2.58822C-0.152041 1.99552 -0.152041 1.03722 0.456123 0.444521C1.064 -0.148174 2.04658 -0.148174 2.65474 0.444521L23.5439 20.8121C24.152 21.4048 24.152 22.3631 23.5439 22.9558C23.2407 23.2529 22.8426 23.4 22.4446 23.4Z" fill="#E31E24"/>
</svg>
