<svg width="30" height="30" viewBox="0 0 30 30" fill="none" xmlns="http://www.w3.org/2000/svg">
<path d="M1.94429 30C1.44674 30 0.948833 29.8096 0.570154 29.4305C-0.190051 28.6707 -0.190051 27.4421 0.570154 26.6822L26.6816 0.569899C27.4414 -0.189966 28.67 -0.189966 29.4298 0.569899C30.1901 1.32976 30.1901 2.55836 29.4298 3.31823L3.31843 29.4305C2.93725 29.8114 2.44184 30 1.94429 30Z" fill="white"/>
<path d="M28.0557 30C27.5582 30 27.0606 29.8096 26.6816 29.4305L0.570154 3.31823C-0.190051 2.55836 -0.190051 1.32976 0.570154 0.569899C1.33 -0.189966 2.55822 -0.189966 3.31843 0.569899L29.4298 26.6822C30.1901 27.4421 30.1901 28.6707 29.4298 29.4305C29.0508 29.8114 28.5533 30 28.0557 30Z" fill="white"/>
</svg>
