<svg width="30" height="23" viewBox="0 0 30 23" fill="none" xmlns="http://www.w3.org/2000/svg">
<path d="M1.25 12.7694H28.75C29.44 12.7694 30 12.2008 30 11.5002C30 10.7995 29.44 10.2309 28.75 10.2309H1.25C0.559998 10.2309 0 10.7995 0 11.5002C0 12.2008 0.559998 12.7694 1.25 12.7694Z" fill="#E31E24"/>
<path d="M1.25 3.03846H28.75C29.44 3.03846 30 2.46985 30 1.76923C30 1.06861 29.44 0.5 28.75 0.5H1.25C0.559998 0.5 0 1.06861 0 1.76923C0 2.46985 0.559998 3.03846 1.25 3.03846Z" fill="#E31E24"/>
<path d="M1.25 22.5H28.75C29.44 22.5 30 21.9314 30 21.2308C30 20.5301 29.44 19.9615 28.75 19.9615H1.25C0.559998 19.9615 0 20.5301 0 21.2308C0 21.9314 0.559998 22.5 1.25 22.5Z" fill="#E31E24"/>
</svg>
