<svg width="30" height="31" viewBox="0 0 30 31" fill="none" xmlns="http://www.w3.org/2000/svg">
  <path d="M23.7219 19.0835C23.1073 18.4448 22.365 18.1023 21.5789 18.1023C20.799 18.1023 20.0517 18.4373 19.4107 19.0773L17.4066 21.0723C17.2414 20.9836 17.0774 20.9011 16.9184 20.8186C16.7041 20.7162 16.4944 20.6044 16.29 20.4836C14.4136 19.2923 12.7086 17.741 11.0725 15.7335C10.2802 14.7334 9.7469 13.8922 9.36009 13.0372C9.87959 12.5621 10.3615 12.0684 10.8309 11.5934C11.0087 11.4159 11.1865 11.2321 11.3642 11.0559C12.6949 9.72584 12.6949 8.00331 11.3642 6.67328L9.63298 4.9445C9.43645 4.74824 9.23241 4.54574 9.04339 4.34324C8.65683 3.93968 8.25902 3.54702 7.85043 3.16571C7.23705 2.5582 6.50099 2.23444 5.72739 2.23444C4.95378 2.23444 4.2052 2.5582 3.57054 3.16571L3.55803 3.17821L1.40244 5.34951C0.602328 6.13291 0.11321 7.17903 0.0254646 8.29456C-0.124751 10.1433 0.421032 11.8659 0.839131 12.9922C1.8656 15.7597 3.4003 18.3235 5.68858 21.0723C8.46631 24.3836 11.8073 26.9974 15.6253 28.8412C17.0837 29.5312 19.0302 30.3475 21.2046 30.4875C21.3385 30.4937 21.4775 30.5 21.6051 30.5C23.0697 30.5 24.299 29.975 25.2629 28.93C25.2691 28.9175 25.2817 28.9112 25.2879 28.8975C25.6184 28.4987 25.9989 28.1387 26.3983 27.7524C26.6699 27.4924 26.949 27.2199 27.2219 26.9349C27.8503 26.2837 28.1796 25.5224 28.1796 24.7449C28.1796 23.9586 27.8441 23.2061 27.2032 22.5723L23.7232 19.0848L23.7219 19.0835ZM25.9927 25.7512C25.9852 25.7512 25.9852 25.7574 25.9927 25.7512C25.7448 26.0174 25.492 26.2574 25.2178 26.5237C24.806 26.9162 24.3879 27.3274 23.9948 27.7899C23.3539 28.4737 22.6003 28.7962 21.6101 28.7962C21.515 28.7962 21.4136 28.7962 21.3185 28.79C19.4358 28.67 17.6858 27.9349 16.3739 27.3087C12.7837 25.5737 9.63298 23.1111 7.01423 19.9898C4.85238 17.3872 3.40656 14.9809 2.44894 12.3971C1.85934 10.8209 1.64403 9.59209 1.73792 8.43457C1.80176 7.6933 2.08842 7.07829 2.61417 6.55328L4.77602 4.39324C5.08647 4.10198 5.41569 3.94323 5.7399 3.94323C6.13923 3.94323 6.46219 4.18448 6.66623 4.38699L6.68376 4.40699C7.07181 4.76699 7.43859 5.14075 7.82539 5.53951C8.02192 5.74201 8.22597 5.94577 8.4275 6.15452L10.1587 7.88331C10.8309 8.55332 10.8309 9.17458 10.1587 9.84584C9.97472 10.0296 9.79822 10.2134 9.61421 10.3896C9.08094 10.9346 8.57397 11.4409 8.02192 11.9346C8.00941 11.9471 7.99689 11.9546 7.99063 11.9671C7.44485 12.5109 7.54624 13.0422 7.66141 13.4047L7.68018 13.4609C8.13083 14.5497 8.76424 15.576 9.72812 16.7985L9.73438 16.8047C11.4844 18.9573 13.3295 20.6348 15.3649 21.9198C15.6253 22.0848 15.8907 22.2186 16.1448 22.3448C16.3726 22.4586 16.5892 22.5661 16.7732 22.6798C16.7983 22.6923 16.8233 22.7123 16.8483 22.7248C17.0649 22.8323 17.2677 22.8824 17.4767 22.8824C18.0025 22.8824 18.3329 22.5536 18.4406 22.4448L20.6087 20.2798C20.824 20.0648 21.167 19.8048 21.5663 19.8048C21.9594 19.8048 22.2824 20.0523 22.4801 20.2673C22.4844 20.2714 22.4886 20.2756 22.4927 20.2798L25.9852 23.7699C26.6386 24.4149 26.6386 25.0799 25.9927 25.7512ZM16.2149 7.6358C17.8749 7.91526 19.4051 8.70794 20.5899 9.90209C21.7835 11.0869 22.5768 12.6142 22.8594 14.2709C22.8927 14.47 22.9959 14.6508 23.1505 14.7809C23.3051 14.911 23.501 14.9819 23.7031 14.9809C23.7532 14.9809 23.7983 14.9747 23.8496 14.9684C23.9608 14.9498 24.0672 14.9095 24.1627 14.8497C24.2583 14.79 24.3411 14.7121 24.4064 14.6203C24.4717 14.5286 24.5183 14.4249 24.5435 14.3152C24.5687 14.2055 24.5719 14.0919 24.5531 13.9809C24.2114 11.9758 23.2513 10.1272 21.8067 8.69332C20.3706 7.25123 18.5194 6.29288 16.5116 5.95202C16.2881 5.91459 16.0589 5.96672 15.8738 6.0971C15.6886 6.22747 15.5624 6.42554 15.5227 6.64828C15.4413 7.11079 15.7455 7.5608 16.2149 7.6358ZM29.9872 13.7334C29.4255 10.4316 27.8447 7.38762 25.4657 5.027C23.1017 2.65133 20.0534 1.07273 16.7469 0.511911C16.6365 0.493275 16.5236 0.496534 16.4144 0.521502C16.3053 0.546471 16.2022 0.592659 16.1109 0.65743C16.0197 0.7222 15.9421 0.804285 15.8826 0.898997C15.8231 0.993709 15.7829 1.09919 15.7643 1.20942C15.7269 1.43347 15.78 1.66317 15.9118 1.84824C16.0437 2.03332 16.2436 2.1587 16.4678 2.19694C19.422 2.69695 22.1184 4.09698 24.2614 6.22952C26.3878 8.33943 27.7998 11.0607 28.2997 14.0122C28.3333 14.2111 28.4366 14.3916 28.5911 14.5214C28.7457 14.6512 28.9415 14.722 29.1434 14.7209C29.1935 14.7209 29.2386 14.7147 29.2887 14.7084C29.3991 14.6913 29.5051 14.6524 29.6003 14.5939C29.6956 14.5353 29.7781 14.4584 29.8432 14.3676C29.9082 14.2768 29.9545 14.1739 29.9792 14.065C30.0039 13.9561 30.0066 13.8434 29.9872 13.7334Z" fill="#EC1B23"></path>
</svg>