<svg width="24" height="24" viewBox="0 0 24 24" fill="none" xmlns="http://www.w3.org/2000/svg">
<path d="M4.46591 0C2.0195 0 0 2.0195 0 4.46591V19.5341C0 21.9805 2.0195 24 4.46591 24H19.5341C21.9805 24 24 21.9805 24 19.5341V4.46591C24 2.0195 21.9805 0 19.5341 0H4.46591ZM4.46591 2.18182H19.5341C20.8011 2.18182 21.8182 3.19886 21.8182 4.46591V19.5341C21.8182 20.8011 20.8011 21.8182 19.5341 21.8182H4.46591C3.19886 21.8182 2.18182 20.8011 2.18182 19.5341V4.46591C2.18182 3.19886 3.19886 2.18182 4.46591 2.18182ZM11.6932 7.875C10.8925 7.86736 10.2022 7.89082 9.81818 8.07955C9.56291 8.205 9.35727 8.47227 9.47727 8.48864C9.62564 8.50827 9.98127 8.58736 10.1591 8.82955C10.3893 9.14264 10.3636 9.85227 10.3636 9.85227C10.3636 9.85227 10.4975 11.793 10.0568 12.0341C9.75464 12.1988 9.34582 11.8347 8.45455 10.2955C7.99745 9.50673 7.67045 8.65909 7.67045 8.65909C7.67045 8.65909 7.58482 8.47364 7.46591 8.38636C7.32191 8.28055 7.125 8.25 7.125 8.25L5.01136 8.28409C5.01136 8.28409 4.68491 8.28082 4.56818 8.42045C4.46345 8.54482 4.53409 8.79545 4.53409 8.79545C4.53409 8.79545 6.222 12.7241 8.11364 14.6932C9.85036 16.4975 11.8295 16.3636 11.8295 16.3636H12.7159C12.7159 16.3636 12.9875 16.3415 13.125 16.1932C13.2515 16.0568 13.2273 15.7841 13.2273 15.7841C13.2273 15.7841 13.2175 14.5961 13.7727 14.4205C14.3204 14.247 15.0379 15.5793 15.7841 16.0909C16.3481 16.4782 16.7727 16.3977 16.7727 16.3977L18.75 16.3636C18.75 16.3636 19.7896 16.2976 19.2955 15.4773C19.2551 15.4107 19.0241 14.8811 17.8295 13.7727C16.5794 12.612 16.7321 12.78 18.2386 10.7727C19.1561 9.54982 19.5464 8.80827 19.4318 8.48864C19.3227 8.18427 18.6477 8.28409 18.6477 8.28409H16.3977C16.3977 8.28409 16.2142 8.27809 16.0909 8.35227C15.9698 8.42427 15.8864 8.59091 15.8864 8.59091C15.8864 8.59091 15.5416 9.52446 15.0682 10.3295C14.0689 12.027 13.6636 12.1047 13.5 12C13.1193 11.7545 13.2273 11.0258 13.2273 10.5C13.2273 8.85491 13.4853 8.15509 12.75 7.97727C12.5056 7.91836 12.3183 7.88155 11.6932 7.875Z" fill="#E31E24"/>
</svg>
